<mxfile host="app.diagrams.net" modified="2020-04-24T22:09:01.827Z" agent="5.0 (Windows NT 10.0; Win64; x64) AppleWebKit/537.36 (KHTML, like Gecko) Chrome/81.0.4044.122 Safari/537.36" etag="a9nxfzDK6sSk6I2J8CTf" version="13.0.1" type="github">
  <diagram id="c4hljf-op57V5p_WFwa3" name="Page-1">
    <mxGraphModel dx="1564" dy="956" grid="1" gridSize="10" guides="1" tooltips="1" connect="1" arrows="1" fold="1" page="1" pageScale="1" pageWidth="850" pageHeight="1100" math="0" shadow="0">
      <root>
        <mxCell id="0" />
        <mxCell id="1" parent="0" />
        <mxCell id="8QlNRYFuqzHitPFtihIb-22" value="&lt;span style=&quot;font-size: 24px&quot;&gt;L&lt;br&gt;o&lt;br&gt;c&lt;br&gt;a&lt;br&gt;l&lt;br&gt;&lt;br&gt;C&lt;/span&gt;&lt;br style=&quot;font-size: 24px&quot;&gt;&lt;span style=&quot;font-size: 24px&quot;&gt;D&lt;/span&gt;&lt;br style=&quot;font-size: 24px&quot;&gt;&lt;span style=&quot;font-size: 24px&quot;&gt;T&lt;/span&gt;" style="rounded=0;whiteSpace=wrap;html=1;" parent="1" vertex="1">
          <mxGeometry x="125" y="120" width="80" height="360" as="geometry" />
        </mxCell>
        <mxCell id="8QlNRYFuqzHitPFtihIb-60" style="edgeStyle=orthogonalEdgeStyle;rounded=0;orthogonalLoop=1;jettySize=auto;html=1;exitX=0.5;exitY=1;exitDx=0;exitDy=0;startArrow=block;startFill=1;endArrow=none;endFill=0;shape=flexArrow;" parent="1" source="8QlNRYFuqzHitPFtihIb-23" edge="1">
          <mxGeometry relative="1" as="geometry">
            <mxPoint x="225" y="520" as="targetPoint" />
            <Array as="points">
              <mxPoint x="225" y="500" />
              <mxPoint x="225" y="500" />
            </Array>
          </mxGeometry>
        </mxCell>
        <mxCell id="8QlNRYFuqzHitPFtihIb-23" value="&lt;span style=&quot;font-size: 24px&quot;&gt;A&lt;/span&gt;&lt;br style=&quot;font-size: 24px&quot;&gt;&lt;span style=&quot;font-size: 24px&quot;&gt;D&lt;/span&gt;&lt;br style=&quot;font-size: 24px&quot;&gt;&lt;span style=&quot;font-size: 24px&quot;&gt;C&lt;/span&gt;" style="rounded=0;whiteSpace=wrap;html=1;" parent="1" vertex="1">
          <mxGeometry x="205" y="120" width="40" height="360" as="geometry" />
        </mxCell>
        <mxCell id="8QlNRYFuqzHitPFtihIb-61" style="edgeStyle=orthogonalEdgeStyle;rounded=0;orthogonalLoop=1;jettySize=auto;html=1;exitX=0.5;exitY=1;exitDx=0;exitDy=0;startArrow=block;startFill=1;endArrow=none;endFill=0;shape=flexArrow;" parent="1" source="8QlNRYFuqzHitPFtihIb-24" edge="1">
          <mxGeometry relative="1" as="geometry">
            <mxPoint x="265" y="520" as="targetPoint" />
          </mxGeometry>
        </mxCell>
        <mxCell id="8QlNRYFuqzHitPFtihIb-24" value="&lt;span style=&quot;font-size: 24px&quot;&gt;A&lt;/span&gt;&lt;br style=&quot;font-size: 24px&quot;&gt;&lt;span style=&quot;font-size: 24px&quot;&gt;D&lt;/span&gt;&lt;br style=&quot;font-size: 24px&quot;&gt;&lt;span style=&quot;font-size: 24px&quot;&gt;C&lt;/span&gt;" style="rounded=0;whiteSpace=wrap;html=1;" parent="1" vertex="1">
          <mxGeometry x="245" y="120" width="40" height="360" as="geometry" />
        </mxCell>
        <mxCell id="8QlNRYFuqzHitPFtihIb-63" style="edgeStyle=orthogonalEdgeStyle;rounded=0;orthogonalLoop=1;jettySize=auto;html=1;exitX=0.5;exitY=1;exitDx=0;exitDy=0;startArrow=block;startFill=1;endArrow=none;endFill=0;shape=flexArrow;" parent="1" source="8QlNRYFuqzHitPFtihIb-25" edge="1">
          <mxGeometry relative="1" as="geometry">
            <mxPoint x="305" y="520" as="targetPoint" />
          </mxGeometry>
        </mxCell>
        <mxCell id="8QlNRYFuqzHitPFtihIb-25" value="&lt;span style=&quot;font-size: 24px&quot;&gt;A&lt;/span&gt;&lt;br style=&quot;font-size: 24px&quot;&gt;&lt;span style=&quot;font-size: 24px&quot;&gt;D&lt;/span&gt;&lt;br style=&quot;font-size: 24px&quot;&gt;&lt;span style=&quot;font-size: 24px&quot;&gt;C&lt;/span&gt;" style="rounded=0;whiteSpace=wrap;html=1;" parent="1" vertex="1">
          <mxGeometry x="285" y="120" width="40" height="360" as="geometry" />
        </mxCell>
        <mxCell id="8QlNRYFuqzHitPFtihIb-64" style="edgeStyle=orthogonalEdgeStyle;rounded=0;orthogonalLoop=1;jettySize=auto;html=1;exitX=0.5;exitY=1;exitDx=0;exitDy=0;startArrow=block;startFill=1;endArrow=none;endFill=0;shape=flexArrow;" parent="1" source="8QlNRYFuqzHitPFtihIb-26" edge="1">
          <mxGeometry relative="1" as="geometry">
            <mxPoint x="345" y="520" as="targetPoint" />
          </mxGeometry>
        </mxCell>
        <mxCell id="8QlNRYFuqzHitPFtihIb-26" value="&lt;span style=&quot;font-size: 24px&quot;&gt;A&lt;/span&gt;&lt;br style=&quot;font-size: 24px&quot;&gt;&lt;span style=&quot;font-size: 24px&quot;&gt;D&lt;/span&gt;&lt;br style=&quot;font-size: 24px&quot;&gt;&lt;span style=&quot;font-size: 24px&quot;&gt;C&lt;/span&gt;" style="rounded=0;whiteSpace=wrap;html=1;" parent="1" vertex="1">
          <mxGeometry x="325" y="120" width="40" height="360" as="geometry" />
        </mxCell>
        <mxCell id="8QlNRYFuqzHitPFtihIb-65" style="edgeStyle=orthogonalEdgeStyle;rounded=0;orthogonalLoop=1;jettySize=auto;html=1;exitX=0.5;exitY=1;exitDx=0;exitDy=0;startArrow=block;startFill=1;endArrow=none;endFill=0;shape=flexArrow;" parent="1" source="8QlNRYFuqzHitPFtihIb-27" edge="1">
          <mxGeometry relative="1" as="geometry">
            <mxPoint x="385" y="520" as="targetPoint" />
          </mxGeometry>
        </mxCell>
        <mxCell id="8QlNRYFuqzHitPFtihIb-27" value="&lt;span style=&quot;font-size: 24px&quot;&gt;A&lt;/span&gt;&lt;br style=&quot;font-size: 24px&quot;&gt;&lt;span style=&quot;font-size: 24px&quot;&gt;D&lt;/span&gt;&lt;br style=&quot;font-size: 24px&quot;&gt;&lt;span style=&quot;font-size: 24px&quot;&gt;C&lt;/span&gt;" style="rounded=0;whiteSpace=wrap;html=1;" parent="1" vertex="1">
          <mxGeometry x="365" y="120" width="40" height="360" as="geometry" />
        </mxCell>
        <mxCell id="8QlNRYFuqzHitPFtihIb-66" style="edgeStyle=orthogonalEdgeStyle;rounded=0;orthogonalLoop=1;jettySize=auto;html=1;exitX=0.5;exitY=1;exitDx=0;exitDy=0;startArrow=block;startFill=1;endArrow=none;endFill=0;shape=flexArrow;" parent="1" source="8QlNRYFuqzHitPFtihIb-28" edge="1">
          <mxGeometry relative="1" as="geometry">
            <mxPoint x="425" y="520" as="targetPoint" />
          </mxGeometry>
        </mxCell>
        <mxCell id="8QlNRYFuqzHitPFtihIb-28" value="&lt;span style=&quot;font-size: 24px&quot;&gt;A&lt;/span&gt;&lt;br style=&quot;font-size: 24px&quot;&gt;&lt;span style=&quot;font-size: 24px&quot;&gt;D&lt;/span&gt;&lt;br style=&quot;font-size: 24px&quot;&gt;&lt;span style=&quot;font-size: 24px&quot;&gt;C&lt;/span&gt;" style="rounded=0;whiteSpace=wrap;html=1;" parent="1" vertex="1">
          <mxGeometry x="405" y="120" width="40" height="360" as="geometry" />
        </mxCell>
        <mxCell id="8QlNRYFuqzHitPFtihIb-67" style="edgeStyle=orthogonalEdgeStyle;rounded=0;orthogonalLoop=1;jettySize=auto;html=1;exitX=0.5;exitY=1;exitDx=0;exitDy=0;startArrow=block;startFill=1;endArrow=none;endFill=0;shape=flexArrow;" parent="1" source="8QlNRYFuqzHitPFtihIb-29" edge="1">
          <mxGeometry relative="1" as="geometry">
            <mxPoint x="465" y="520" as="targetPoint" />
          </mxGeometry>
        </mxCell>
        <mxCell id="8QlNRYFuqzHitPFtihIb-29" value="&lt;span style=&quot;font-size: 24px&quot;&gt;A&lt;/span&gt;&lt;br style=&quot;font-size: 24px&quot;&gt;&lt;span style=&quot;font-size: 24px&quot;&gt;D&lt;/span&gt;&lt;br style=&quot;font-size: 24px&quot;&gt;&lt;span style=&quot;font-size: 24px&quot;&gt;C&lt;/span&gt;" style="rounded=0;whiteSpace=wrap;html=1;" parent="1" vertex="1">
          <mxGeometry x="445" y="120" width="40" height="360" as="geometry" />
        </mxCell>
        <mxCell id="8QlNRYFuqzHitPFtihIb-68" style="edgeStyle=orthogonalEdgeStyle;rounded=0;orthogonalLoop=1;jettySize=auto;html=1;exitX=0.5;exitY=1;exitDx=0;exitDy=0;startArrow=block;startFill=1;endArrow=none;endFill=0;shape=flexArrow;" parent="1" source="8QlNRYFuqzHitPFtihIb-30" edge="1">
          <mxGeometry relative="1" as="geometry">
            <mxPoint x="505" y="520" as="targetPoint" />
          </mxGeometry>
        </mxCell>
        <mxCell id="8QlNRYFuqzHitPFtihIb-30" value="&lt;span style=&quot;font-size: 24px&quot;&gt;A&lt;/span&gt;&lt;br style=&quot;font-size: 24px&quot;&gt;&lt;span style=&quot;font-size: 24px&quot;&gt;D&lt;/span&gt;&lt;br style=&quot;font-size: 24px&quot;&gt;&lt;span style=&quot;font-size: 24px&quot;&gt;C&lt;/span&gt;" style="rounded=0;whiteSpace=wrap;html=1;" parent="1" vertex="1">
          <mxGeometry x="485" y="120" width="40" height="360" as="geometry" />
        </mxCell>
        <mxCell id="8QlNRYFuqzHitPFtihIb-69" style="edgeStyle=orthogonalEdgeStyle;rounded=0;orthogonalLoop=1;jettySize=auto;html=1;exitX=0.5;exitY=1;exitDx=0;exitDy=0;startArrow=block;startFill=1;endArrow=none;endFill=0;shape=flexArrow;" parent="1" source="8QlNRYFuqzHitPFtihIb-31" edge="1">
          <mxGeometry relative="1" as="geometry">
            <mxPoint x="545" y="520" as="targetPoint" />
          </mxGeometry>
        </mxCell>
        <mxCell id="8QlNRYFuqzHitPFtihIb-31" value="&lt;span style=&quot;font-size: 24px&quot;&gt;A&lt;/span&gt;&lt;br style=&quot;font-size: 24px&quot;&gt;&lt;span style=&quot;font-size: 24px&quot;&gt;D&lt;/span&gt;&lt;br style=&quot;font-size: 24px&quot;&gt;&lt;span style=&quot;font-size: 24px&quot;&gt;C&lt;/span&gt;" style="rounded=0;whiteSpace=wrap;html=1;" parent="1" vertex="1">
          <mxGeometry x="525" y="120" width="40" height="360" as="geometry" />
        </mxCell>
        <mxCell id="8QlNRYFuqzHitPFtihIb-70" style="edgeStyle=orthogonalEdgeStyle;rounded=0;orthogonalLoop=1;jettySize=auto;html=1;exitX=0.5;exitY=1;exitDx=0;exitDy=0;startArrow=block;startFill=1;endArrow=none;endFill=0;shape=flexArrow;" parent="1" source="8QlNRYFuqzHitPFtihIb-32" edge="1">
          <mxGeometry relative="1" as="geometry">
            <mxPoint x="585" y="520" as="targetPoint" />
          </mxGeometry>
        </mxCell>
        <mxCell id="8QlNRYFuqzHitPFtihIb-32" value="&lt;span style=&quot;font-size: 24px&quot;&gt;A&lt;/span&gt;&lt;br style=&quot;font-size: 24px&quot;&gt;&lt;span style=&quot;font-size: 24px&quot;&gt;D&lt;/span&gt;&lt;br style=&quot;font-size: 24px&quot;&gt;&lt;span style=&quot;font-size: 24px&quot;&gt;C&lt;/span&gt;" style="rounded=0;whiteSpace=wrap;html=1;" parent="1" vertex="1">
          <mxGeometry x="565" y="120" width="40" height="360" as="geometry" />
        </mxCell>
        <mxCell id="8QlNRYFuqzHitPFtihIb-71" style="edgeStyle=orthogonalEdgeStyle;rounded=0;orthogonalLoop=1;jettySize=auto;html=1;exitX=0.5;exitY=1;exitDx=0;exitDy=0;startArrow=block;startFill=1;endArrow=none;endFill=0;shape=flexArrow;" parent="1" source="8QlNRYFuqzHitPFtihIb-33" edge="1">
          <mxGeometry relative="1" as="geometry">
            <mxPoint x="625" y="520" as="targetPoint" />
          </mxGeometry>
        </mxCell>
        <mxCell id="8QlNRYFuqzHitPFtihIb-33" value="&lt;span style=&quot;font-size: 24px&quot;&gt;A&lt;/span&gt;&lt;br style=&quot;font-size: 24px&quot;&gt;&lt;span style=&quot;font-size: 24px&quot;&gt;D&lt;/span&gt;&lt;br style=&quot;font-size: 24px&quot;&gt;&lt;span style=&quot;font-size: 24px&quot;&gt;C&lt;/span&gt;" style="rounded=0;whiteSpace=wrap;html=1;" parent="1" vertex="1">
          <mxGeometry x="605" y="120" width="40" height="360" as="geometry" />
        </mxCell>
        <mxCell id="8QlNRYFuqzHitPFtihIb-72" style="edgeStyle=orthogonalEdgeStyle;rounded=0;orthogonalLoop=1;jettySize=auto;html=1;exitX=0.5;exitY=1;exitDx=0;exitDy=0;startArrow=block;startFill=1;endArrow=none;endFill=0;shape=flexArrow;" parent="1" source="8QlNRYFuqzHitPFtihIb-34" edge="1">
          <mxGeometry relative="1" as="geometry">
            <mxPoint x="665" y="520" as="targetPoint" />
          </mxGeometry>
        </mxCell>
        <mxCell id="8QlNRYFuqzHitPFtihIb-34" value="&lt;span style=&quot;font-size: 24px&quot;&gt;A&lt;/span&gt;&lt;br style=&quot;font-size: 24px&quot;&gt;&lt;span style=&quot;font-size: 24px&quot;&gt;D&lt;/span&gt;&lt;br style=&quot;font-size: 24px&quot;&gt;&lt;span style=&quot;font-size: 24px&quot;&gt;C&lt;/span&gt;" style="rounded=0;whiteSpace=wrap;html=1;" parent="1" vertex="1">
          <mxGeometry x="645" y="120" width="40" height="360" as="geometry" />
        </mxCell>
        <mxCell id="8QlNRYFuqzHitPFtihIb-73" style="edgeStyle=orthogonalEdgeStyle;rounded=0;orthogonalLoop=1;jettySize=auto;html=1;exitX=0.5;exitY=1;exitDx=0;exitDy=0;startArrow=block;startFill=1;endArrow=none;endFill=0;shape=flexArrow;" parent="1" source="8QlNRYFuqzHitPFtihIb-35" edge="1">
          <mxGeometry relative="1" as="geometry">
            <mxPoint x="705" y="520" as="targetPoint" />
          </mxGeometry>
        </mxCell>
        <mxCell id="8QlNRYFuqzHitPFtihIb-35" value="&lt;span style=&quot;font-size: 24px&quot;&gt;A&lt;/span&gt;&lt;br style=&quot;font-size: 24px&quot;&gt;&lt;span style=&quot;font-size: 24px&quot;&gt;D&lt;/span&gt;&lt;br style=&quot;font-size: 24px&quot;&gt;&lt;span style=&quot;font-size: 24px&quot;&gt;C&lt;/span&gt;" style="rounded=0;whiteSpace=wrap;html=1;" parent="1" vertex="1">
          <mxGeometry x="685" y="120" width="40" height="360" as="geometry" />
        </mxCell>
        <mxCell id="8QlNRYFuqzHitPFtihIb-74" style="edgeStyle=orthogonalEdgeStyle;rounded=0;orthogonalLoop=1;jettySize=auto;html=1;exitX=0.5;exitY=1;exitDx=0;exitDy=0;startArrow=block;startFill=1;endArrow=none;endFill=0;shape=flexArrow;" parent="1" source="8QlNRYFuqzHitPFtihIb-36" edge="1">
          <mxGeometry relative="1" as="geometry">
            <mxPoint x="745" y="520" as="targetPoint" />
          </mxGeometry>
        </mxCell>
        <mxCell id="8QlNRYFuqzHitPFtihIb-36" value="&lt;span style=&quot;font-size: 24px&quot;&gt;A&lt;/span&gt;&lt;br style=&quot;font-size: 24px&quot;&gt;&lt;span style=&quot;font-size: 24px&quot;&gt;D&lt;/span&gt;&lt;br style=&quot;font-size: 24px&quot;&gt;&lt;span style=&quot;font-size: 24px&quot;&gt;C&lt;/span&gt;" style="rounded=0;whiteSpace=wrap;html=1;" parent="1" vertex="1">
          <mxGeometry x="725" y="120" width="40" height="360" as="geometry" />
        </mxCell>
        <mxCell id="8QlNRYFuqzHitPFtihIb-75" style="edgeStyle=orthogonalEdgeStyle;rounded=0;orthogonalLoop=1;jettySize=auto;html=1;exitX=0.5;exitY=1;exitDx=0;exitDy=0;startArrow=block;startFill=1;endArrow=none;endFill=0;shape=flexArrow;" parent="1" source="8QlNRYFuqzHitPFtihIb-37" edge="1">
          <mxGeometry relative="1" as="geometry">
            <mxPoint x="785" y="520" as="targetPoint" />
          </mxGeometry>
        </mxCell>
        <mxCell id="8QlNRYFuqzHitPFtihIb-37" value="&lt;span style=&quot;font-size: 24px&quot;&gt;A&lt;/span&gt;&lt;br style=&quot;font-size: 24px&quot;&gt;&lt;span style=&quot;font-size: 24px&quot;&gt;D&lt;/span&gt;&lt;br style=&quot;font-size: 24px&quot;&gt;&lt;span style=&quot;font-size: 24px&quot;&gt;C&lt;/span&gt;" style="rounded=0;whiteSpace=wrap;html=1;" parent="1" vertex="1">
          <mxGeometry x="765" y="120" width="40" height="360" as="geometry" />
        </mxCell>
        <mxCell id="8QlNRYFuqzHitPFtihIb-76" style="edgeStyle=orthogonalEdgeStyle;rounded=0;orthogonalLoop=1;jettySize=auto;html=1;exitX=0.5;exitY=1;exitDx=0;exitDy=0;startArrow=block;startFill=1;endArrow=none;endFill=0;shape=flexArrow;" parent="1" source="8QlNRYFuqzHitPFtihIb-38" edge="1">
          <mxGeometry relative="1" as="geometry">
            <mxPoint x="825" y="520" as="targetPoint" />
          </mxGeometry>
        </mxCell>
        <mxCell id="8QlNRYFuqzHitPFtihIb-38" value="&lt;span style=&quot;font-size: 24px&quot;&gt;A&lt;/span&gt;&lt;br style=&quot;font-size: 24px&quot;&gt;&lt;span style=&quot;font-size: 24px&quot;&gt;D&lt;/span&gt;&lt;br style=&quot;font-size: 24px&quot;&gt;&lt;span style=&quot;font-size: 24px&quot;&gt;C&lt;/span&gt;" style="rounded=0;whiteSpace=wrap;html=1;" parent="1" vertex="1">
          <mxGeometry x="805" y="120" width="40" height="360" as="geometry" />
        </mxCell>
        <mxCell id="8QlNRYFuqzHitPFtihIb-77" value="&lt;pre&gt;&lt;font style=&quot;font-size: 24px&quot;&gt;Detector&lt;/font&gt;&lt;/pre&gt;" style="rounded=1;whiteSpace=wrap;html=1;" parent="1" vertex="1">
          <mxGeometry x="205" y="520" width="640" height="60" as="geometry" />
        </mxCell>
        <mxCell id="8QlNRYFuqzHitPFtihIb-79" value="&lt;pre&gt;&lt;font style=&quot;font-size: 24px&quot;&gt;Level 2&lt;/font&gt;&lt;/pre&gt;" style="rounded=1;whiteSpace=wrap;html=1;" parent="1" vertex="1">
          <mxGeometry x="205" y="20" width="640" height="60" as="geometry" />
        </mxCell>
        <mxCell id="8QlNRYFuqzHitPFtihIb-83" value="" style="endArrow=classic;html=1;startArrow=oval;startFill=1;strokeColor=#990000;" parent="1" edge="1">
          <mxGeometry width="50" height="50" relative="1" as="geometry">
            <mxPoint x="825" y="140" as="sourcePoint" />
            <mxPoint x="665" y="200" as="targetPoint" />
          </mxGeometry>
        </mxCell>
        <mxCell id="8QlNRYFuqzHitPFtihIb-86" value="" style="endArrow=classic;html=1;startArrow=oval;startFill=1;strokeColor=#FF0000;" parent="1" edge="1">
          <mxGeometry width="50" height="50" relative="1" as="geometry">
            <mxPoint x="785" y="140" as="sourcePoint" />
            <mxPoint x="625" y="200" as="targetPoint" />
          </mxGeometry>
        </mxCell>
        <mxCell id="8QlNRYFuqzHitPFtihIb-87" value="" style="endArrow=classic;html=1;startArrow=oval;startFill=1;fillColor=#f8cecc;strokeColor=#FF6666;" parent="1" edge="1">
          <mxGeometry width="50" height="50" relative="1" as="geometry">
            <mxPoint x="745" y="140" as="sourcePoint" />
            <mxPoint x="585" y="200" as="targetPoint" />
          </mxGeometry>
        </mxCell>
        <mxCell id="8QlNRYFuqzHitPFtihIb-88" value="" style="endArrow=classic;html=1;startArrow=oval;startFill=1;strokeColor=#FFCCCC;" parent="1" edge="1">
          <mxGeometry width="50" height="50" relative="1" as="geometry">
            <mxPoint x="705" y="140" as="sourcePoint" />
            <mxPoint x="545" y="200" as="targetPoint" />
          </mxGeometry>
        </mxCell>
        <mxCell id="8QlNRYFuqzHitPFtihIb-89" value="" style="endArrow=classic;html=1;startArrow=oval;startFill=1;strokeColor=#990000;" parent="1" edge="1">
          <mxGeometry width="50" height="50" relative="1" as="geometry">
            <mxPoint x="665" y="140" as="sourcePoint" />
            <mxPoint x="505" y="200" as="targetPoint" />
          </mxGeometry>
        </mxCell>
        <mxCell id="8QlNRYFuqzHitPFtihIb-90" value="" style="endArrow=classic;html=1;startArrow=oval;startFill=1;strokeColor=#FF0000;" parent="1" edge="1">
          <mxGeometry width="50" height="50" relative="1" as="geometry">
            <mxPoint x="625" y="140" as="sourcePoint" />
            <mxPoint x="465" y="200" as="targetPoint" />
          </mxGeometry>
        </mxCell>
        <mxCell id="8QlNRYFuqzHitPFtihIb-91" value="" style="endArrow=classic;html=1;startArrow=oval;startFill=1;fillColor=#f8cecc;strokeColor=#FF6666;" parent="1" edge="1">
          <mxGeometry width="50" height="50" relative="1" as="geometry">
            <mxPoint x="585" y="140" as="sourcePoint" />
            <mxPoint x="425" y="200" as="targetPoint" />
          </mxGeometry>
        </mxCell>
        <mxCell id="8QlNRYFuqzHitPFtihIb-92" value="" style="endArrow=classic;html=1;startArrow=oval;startFill=1;strokeColor=#FFCCCC;" parent="1" edge="1">
          <mxGeometry width="50" height="50" relative="1" as="geometry">
            <mxPoint x="545" y="140" as="sourcePoint" />
            <mxPoint x="385" y="200" as="targetPoint" />
          </mxGeometry>
        </mxCell>
        <mxCell id="8QlNRYFuqzHitPFtihIb-93" value="" style="endArrow=classic;html=1;startArrow=oval;startFill=1;strokeColor=#990000;" parent="1" edge="1">
          <mxGeometry width="50" height="50" relative="1" as="geometry">
            <mxPoint x="505" y="140" as="sourcePoint" />
            <mxPoint x="345" y="200" as="targetPoint" />
          </mxGeometry>
        </mxCell>
        <mxCell id="8QlNRYFuqzHitPFtihIb-94" value="" style="endArrow=classic;html=1;startArrow=oval;startFill=1;strokeColor=#FF0000;" parent="1" edge="1">
          <mxGeometry width="50" height="50" relative="1" as="geometry">
            <mxPoint x="465" y="140" as="sourcePoint" />
            <mxPoint x="305" y="200" as="targetPoint" />
          </mxGeometry>
        </mxCell>
        <mxCell id="8QlNRYFuqzHitPFtihIb-95" value="" style="endArrow=classic;html=1;startArrow=oval;startFill=1;fillColor=#f8cecc;strokeColor=#b85450;" parent="1" edge="1">
          <mxGeometry width="50" height="50" relative="1" as="geometry">
            <mxPoint x="425" y="140" as="sourcePoint" />
            <mxPoint x="265" y="200" as="targetPoint" />
          </mxGeometry>
        </mxCell>
        <mxCell id="8QlNRYFuqzHitPFtihIb-96" value="" style="endArrow=classic;html=1;startArrow=oval;startFill=1;strokeColor=#FFCCCC;" parent="1" edge="1">
          <mxGeometry width="50" height="50" relative="1" as="geometry">
            <mxPoint x="385" y="140" as="sourcePoint" />
            <mxPoint x="225" y="200" as="targetPoint" />
          </mxGeometry>
        </mxCell>
        <mxCell id="8QlNRYFuqzHitPFtihIb-97" value="" style="endArrow=none;dashed=1;html=1;strokeColor=#990000;" parent="1" edge="1">
          <mxGeometry width="50" height="50" relative="1" as="geometry">
            <mxPoint x="665" y="140" as="sourcePoint" />
            <mxPoint x="665" y="200" as="targetPoint" />
          </mxGeometry>
        </mxCell>
        <mxCell id="8QlNRYFuqzHitPFtihIb-98" value="" style="endArrow=none;dashed=1;html=1;strokeColor=#FF0000;" parent="1" edge="1">
          <mxGeometry width="50" height="50" relative="1" as="geometry">
            <mxPoint x="624.33" y="140" as="sourcePoint" />
            <mxPoint x="624.33" y="200" as="targetPoint" />
          </mxGeometry>
        </mxCell>
        <mxCell id="8QlNRYFuqzHitPFtihIb-99" value="" style="endArrow=none;dashed=1;html=1;fillColor=#f8cecc;strokeColor=#FF6666;" parent="1" edge="1">
          <mxGeometry width="50" height="50" relative="1" as="geometry">
            <mxPoint x="585.67" y="140" as="sourcePoint" />
            <mxPoint x="585.67" y="200" as="targetPoint" />
          </mxGeometry>
        </mxCell>
        <mxCell id="8QlNRYFuqzHitPFtihIb-100" value="" style="endArrow=none;dashed=1;html=1;strokeColor=#FFCCCC;" parent="1" edge="1">
          <mxGeometry width="50" height="50" relative="1" as="geometry">
            <mxPoint x="545" y="140" as="sourcePoint" />
            <mxPoint x="545" y="200" as="targetPoint" />
          </mxGeometry>
        </mxCell>
        <mxCell id="8QlNRYFuqzHitPFtihIb-101" value="" style="endArrow=none;dashed=1;html=1;strokeColor=#990000;" parent="1" edge="1">
          <mxGeometry width="50" height="50" relative="1" as="geometry">
            <mxPoint x="505" y="140" as="sourcePoint" />
            <mxPoint x="505" y="200" as="targetPoint" />
          </mxGeometry>
        </mxCell>
        <mxCell id="8QlNRYFuqzHitPFtihIb-102" value="" style="endArrow=none;dashed=1;html=1;strokeColor=#FF0000;" parent="1" edge="1">
          <mxGeometry width="50" height="50" relative="1" as="geometry">
            <mxPoint x="464.3299999999999" y="140" as="sourcePoint" />
            <mxPoint x="464.3299999999999" y="200" as="targetPoint" />
          </mxGeometry>
        </mxCell>
        <mxCell id="8QlNRYFuqzHitPFtihIb-103" value="" style="endArrow=none;dashed=1;html=1;fillColor=#f8cecc;strokeColor=#FF6666;" parent="1" edge="1">
          <mxGeometry width="50" height="50" relative="1" as="geometry">
            <mxPoint x="425.6700000000001" y="140" as="sourcePoint" />
            <mxPoint x="425.6700000000001" y="200" as="targetPoint" />
          </mxGeometry>
        </mxCell>
        <mxCell id="8QlNRYFuqzHitPFtihIb-104" value="" style="endArrow=none;dashed=1;html=1;strokeColor=#FFCCCC;" parent="1" edge="1">
          <mxGeometry width="50" height="50" relative="1" as="geometry">
            <mxPoint x="385" y="140" as="sourcePoint" />
            <mxPoint x="385" y="200" as="targetPoint" />
          </mxGeometry>
        </mxCell>
        <mxCell id="8QlNRYFuqzHitPFtihIb-105" value="" style="endArrow=none;dashed=1;html=1;strokeColor=#990000;" parent="1" edge="1">
          <mxGeometry width="50" height="50" relative="1" as="geometry">
            <mxPoint x="345" y="140" as="sourcePoint" />
            <mxPoint x="345" y="200" as="targetPoint" />
          </mxGeometry>
        </mxCell>
        <mxCell id="8QlNRYFuqzHitPFtihIb-106" value="" style="endArrow=none;dashed=1;html=1;strokeColor=#FF0000;" parent="1" edge="1">
          <mxGeometry width="50" height="50" relative="1" as="geometry">
            <mxPoint x="304.3299999999999" y="140" as="sourcePoint" />
            <mxPoint x="304.3299999999999" y="200" as="targetPoint" />
          </mxGeometry>
        </mxCell>
        <mxCell id="8QlNRYFuqzHitPFtihIb-107" value="" style="endArrow=none;dashed=1;html=1;fillColor=#f8cecc;strokeColor=#FF6666;" parent="1" edge="1">
          <mxGeometry width="50" height="50" relative="1" as="geometry">
            <mxPoint x="265.6700000000001" y="140" as="sourcePoint" />
            <mxPoint x="265.6700000000001" y="200" as="targetPoint" />
          </mxGeometry>
        </mxCell>
        <mxCell id="8QlNRYFuqzHitPFtihIb-108" value="" style="endArrow=none;dashed=1;html=1;strokeColor=#FFCCCC;" parent="1" edge="1">
          <mxGeometry width="50" height="50" relative="1" as="geometry">
            <mxPoint x="225" y="140" as="sourcePoint" />
            <mxPoint x="225" y="200" as="targetPoint" />
          </mxGeometry>
        </mxCell>
        <mxCell id="8QlNRYFuqzHitPFtihIb-109" value="" style="endArrow=classic;html=1;startArrow=oval;startFill=1;strokeColor=#990000;" parent="1" edge="1">
          <mxGeometry width="50" height="50" relative="1" as="geometry">
            <mxPoint x="345" y="140" as="sourcePoint" />
            <mxPoint x="145" y="200" as="targetPoint" />
          </mxGeometry>
        </mxCell>
        <mxCell id="8QlNRYFuqzHitPFtihIb-110" value="" style="endArrow=classic;html=1;startArrow=oval;startFill=1;" parent="1" edge="1">
          <mxGeometry width="50" height="50" relative="1" as="geometry">
            <mxPoint x="305" y="140" as="sourcePoint" />
            <mxPoint x="185" y="200" as="targetPoint" />
          </mxGeometry>
        </mxCell>
        <mxCell id="8QlNRYFuqzHitPFtihIb-111" value="" style="endArrow=classic;html=1;startArrow=oval;startFill=1;fillColor=#f8cecc;strokeColor=#FF6666;" parent="1" edge="1">
          <mxGeometry width="50" height="50" relative="1" as="geometry">
            <mxPoint x="265" y="140" as="sourcePoint" />
            <mxPoint x="145" y="155" as="targetPoint" />
          </mxGeometry>
        </mxCell>
        <mxCell id="8QlNRYFuqzHitPFtihIb-112" value="" style="endArrow=classic;html=1;startArrow=oval;startFill=1;strokeColor=#FFCCCC;" parent="1" edge="1">
          <mxGeometry width="50" height="50" relative="1" as="geometry">
            <mxPoint x="225" y="140" as="sourcePoint" />
            <mxPoint x="185" y="155" as="targetPoint" />
          </mxGeometry>
        </mxCell>
        <mxCell id="8QlNRYFuqzHitPFtihIb-114" value="" style="endArrow=classic;startArrow=classic;html=1;strokeColor=#6666FF;" parent="1" edge="1">
          <mxGeometry width="50" height="50" relative="1" as="geometry">
            <mxPoint x="145" y="250" as="sourcePoint" />
            <mxPoint x="225" y="220" as="targetPoint" />
          </mxGeometry>
        </mxCell>
        <mxCell id="8QlNRYFuqzHitPFtihIb-115" value="" style="endArrow=classic;startArrow=classic;html=1;strokeColor=#6666FF;" parent="1" edge="1">
          <mxGeometry width="50" height="50" relative="1" as="geometry">
            <mxPoint x="145" y="280" as="sourcePoint" />
            <mxPoint x="265" y="220" as="targetPoint" />
          </mxGeometry>
        </mxCell>
        <mxCell id="8QlNRYFuqzHitPFtihIb-116" value="" style="endArrow=classic;startArrow=classic;html=1;strokeColor=#6666FF;" parent="1" edge="1">
          <mxGeometry width="50" height="50" relative="1" as="geometry">
            <mxPoint x="145" y="310" as="sourcePoint" />
            <mxPoint x="305" y="220" as="targetPoint" />
          </mxGeometry>
        </mxCell>
        <mxCell id="8QlNRYFuqzHitPFtihIb-117" value="" style="endArrow=classic;startArrow=classic;html=1;strokeColor=#6666FF;" parent="1" edge="1">
          <mxGeometry width="50" height="50" relative="1" as="geometry">
            <mxPoint x="145" y="340" as="sourcePoint" />
            <mxPoint x="345" y="220" as="targetPoint" />
          </mxGeometry>
        </mxCell>
        <mxCell id="8QlNRYFuqzHitPFtihIb-118" value="" style="endArrow=classic;startArrow=classic;html=1;strokeColor=#6666FF;" parent="1" edge="1">
          <mxGeometry width="50" height="50" relative="1" as="geometry">
            <mxPoint x="145" y="370" as="sourcePoint" />
            <mxPoint x="385" y="220" as="targetPoint" />
          </mxGeometry>
        </mxCell>
        <mxCell id="8QlNRYFuqzHitPFtihIb-119" value="" style="endArrow=classic;startArrow=classic;html=1;strokeColor=#6666FF;" parent="1" edge="1">
          <mxGeometry width="50" height="50" relative="1" as="geometry">
            <mxPoint x="145" y="400" as="sourcePoint" />
            <mxPoint x="425" y="220" as="targetPoint" />
          </mxGeometry>
        </mxCell>
        <mxCell id="8QlNRYFuqzHitPFtihIb-120" value="" style="endArrow=classic;startArrow=classic;html=1;strokeColor=#6666FF;" parent="1" edge="1">
          <mxGeometry width="50" height="50" relative="1" as="geometry">
            <mxPoint x="145" y="430" as="sourcePoint" />
            <mxPoint x="465" y="220" as="targetPoint" />
          </mxGeometry>
        </mxCell>
        <mxCell id="8QlNRYFuqzHitPFtihIb-121" value="" style="endArrow=classic;startArrow=classic;html=1;strokeColor=#6666FF;" parent="1" edge="1">
          <mxGeometry width="50" height="50" relative="1" as="geometry">
            <mxPoint x="145" y="460" as="sourcePoint" />
            <mxPoint x="505" y="220" as="targetPoint" />
          </mxGeometry>
        </mxCell>
        <mxCell id="8QlNRYFuqzHitPFtihIb-122" value="" style="endArrow=classic;startArrow=classic;html=1;strokeColor=#6666FF;" parent="1" edge="1">
          <mxGeometry width="50" height="50" relative="1" as="geometry">
            <mxPoint x="185" y="250" as="sourcePoint" />
            <mxPoint x="545" y="220" as="targetPoint" />
          </mxGeometry>
        </mxCell>
        <mxCell id="8QlNRYFuqzHitPFtihIb-123" value="" style="endArrow=classic;startArrow=classic;html=1;strokeColor=#6666FF;" parent="1" edge="1">
          <mxGeometry width="50" height="50" relative="1" as="geometry">
            <mxPoint x="185" y="280" as="sourcePoint" />
            <mxPoint x="585" y="220" as="targetPoint" />
          </mxGeometry>
        </mxCell>
        <mxCell id="8QlNRYFuqzHitPFtihIb-124" value="" style="endArrow=classic;startArrow=classic;html=1;strokeColor=#6666FF;" parent="1" edge="1">
          <mxGeometry width="50" height="50" relative="1" as="geometry">
            <mxPoint x="185" y="310" as="sourcePoint" />
            <mxPoint x="625" y="220" as="targetPoint" />
          </mxGeometry>
        </mxCell>
        <mxCell id="8QlNRYFuqzHitPFtihIb-125" value="" style="endArrow=classic;startArrow=classic;html=1;strokeColor=#6666FF;" parent="1" edge="1">
          <mxGeometry width="50" height="50" relative="1" as="geometry">
            <mxPoint x="185" y="340" as="sourcePoint" />
            <mxPoint x="665" y="220" as="targetPoint" />
          </mxGeometry>
        </mxCell>
        <mxCell id="8QlNRYFuqzHitPFtihIb-126" value="" style="endArrow=classic;startArrow=classic;html=1;strokeColor=#6666FF;" parent="1" edge="1">
          <mxGeometry width="50" height="50" relative="1" as="geometry">
            <mxPoint x="185" y="370" as="sourcePoint" />
            <mxPoint x="705" y="220" as="targetPoint" />
          </mxGeometry>
        </mxCell>
        <mxCell id="8QlNRYFuqzHitPFtihIb-127" value="" style="endArrow=classic;startArrow=classic;html=1;strokeColor=#6666FF;" parent="1" edge="1">
          <mxGeometry width="50" height="50" relative="1" as="geometry">
            <mxPoint x="185" y="400" as="sourcePoint" />
            <mxPoint x="745" y="220" as="targetPoint" />
          </mxGeometry>
        </mxCell>
        <mxCell id="8QlNRYFuqzHitPFtihIb-128" value="" style="endArrow=classic;startArrow=classic;html=1;strokeColor=#6666FF;" parent="1" edge="1">
          <mxGeometry width="50" height="50" relative="1" as="geometry">
            <mxPoint x="185" y="430" as="sourcePoint" />
            <mxPoint x="785" y="220" as="targetPoint" />
          </mxGeometry>
        </mxCell>
        <mxCell id="8QlNRYFuqzHitPFtihIb-129" value="" style="endArrow=classic;startArrow=classic;html=1;strokeColor=#6666FF;" parent="1" edge="1">
          <mxGeometry width="50" height="50" relative="1" as="geometry">
            <mxPoint x="185" y="460" as="sourcePoint" />
            <mxPoint x="825" y="220" as="targetPoint" />
          </mxGeometry>
        </mxCell>
        <mxCell id="8QlNRYFuqzHitPFtihIb-131" value="" style="endArrow=classic;html=1;startArrow=oval;startFill=1;strokeColor=#FF0000;" parent="1" edge="1">
          <mxGeometry width="50" height="50" relative="1" as="geometry">
            <mxPoint x="305" y="140" as="sourcePoint" />
            <mxPoint x="185" y="200" as="targetPoint" />
          </mxGeometry>
        </mxCell>
        <mxCell id="8QlNRYFuqzHitPFtihIb-132" value="" style="endArrow=classic;html=1;startArrow=oval;startFill=1;fillColor=#f8cecc;strokeColor=#FF6666;" parent="1" edge="1">
          <mxGeometry width="50" height="50" relative="1" as="geometry">
            <mxPoint x="425" y="140" as="sourcePoint" />
            <mxPoint x="265" y="200" as="targetPoint" />
          </mxGeometry>
        </mxCell>
        <mxCell id="8QlNRYFuqzHitPFtihIb-134" value="&lt;font style=&quot;font-size: 18px&quot;&gt;OFC-1&lt;/font&gt;" style="rounded=1;whiteSpace=wrap;html=1;" parent="1" vertex="1">
          <mxGeometry x="5" y="140" width="80" height="30" as="geometry" />
        </mxCell>
        <mxCell id="8QlNRYFuqzHitPFtihIb-135" value="&lt;font style=&quot;font-size: 18px&quot;&gt;OFC-2&lt;/font&gt;" style="rounded=1;whiteSpace=wrap;html=1;" parent="1" vertex="1">
          <mxGeometry x="5" y="180" width="80" height="30" as="geometry" />
        </mxCell>
        <mxCell id="8QlNRYFuqzHitPFtihIb-136" style="edgeStyle=orthogonalEdgeStyle;rounded=0;orthogonalLoop=1;jettySize=auto;html=1;fillColor=#e51400;strokeColor=#B20000;entryX=1;entryY=0.5;entryDx=0;entryDy=0;jumpSize=7;strokeWidth=3;startArrow=oval;startFill=1;" parent="1" target="8QlNRYFuqzHitPFtihIb-134" edge="1">
          <mxGeometry relative="1" as="geometry">
            <mxPoint x="235" y="90" as="targetPoint" />
            <mxPoint x="125" y="155" as="sourcePoint" />
          </mxGeometry>
        </mxCell>
        <mxCell id="8QlNRYFuqzHitPFtihIb-137" style="edgeStyle=orthogonalEdgeStyle;rounded=0;orthogonalLoop=1;jettySize=auto;html=1;fillColor=#e51400;strokeColor=#B20000;entryX=1;entryY=0.5;entryDx=0;entryDy=0;exitX=0;exitY=0.208;exitDx=0;exitDy=0;exitPerimeter=0;jumpSize=7;strokeWidth=3;startArrow=oval;startFill=1;" parent="1" source="8QlNRYFuqzHitPFtihIb-22" target="8QlNRYFuqzHitPFtihIb-135" edge="1">
          <mxGeometry relative="1" as="geometry">
            <mxPoint x="95" y="165" as="targetPoint" />
            <mxPoint x="135" y="165" as="sourcePoint" />
          </mxGeometry>
        </mxCell>
        <mxCell id="8QlNRYFuqzHitPFtihIb-138" value="&lt;font style=&quot;font-size: 18px&quot;&gt;Fanout&lt;br&gt;CDT&lt;br&gt;&lt;/font&gt;" style="rounded=1;whiteSpace=wrap;html=1;" parent="1" vertex="1">
          <mxGeometry x="5" y="220" width="80" height="60" as="geometry" />
        </mxCell>
        <mxCell id="8QlNRYFuqzHitPFtihIb-139" value="" style="endArrow=classic;startArrow=classic;html=1;strokeColor=#6666FF;exitX=1;exitY=0.5;exitDx=0;exitDy=0;jumpSize=7;strokeWidth=3;" parent="1" source="8QlNRYFuqzHitPFtihIb-138" edge="1">
          <mxGeometry width="50" height="50" relative="1" as="geometry">
            <mxPoint x="155" y="260" as="sourcePoint" />
            <mxPoint x="155" y="225" as="targetPoint" />
          </mxGeometry>
        </mxCell>
        <mxCell id="8QlNRYFuqzHitPFtihIb-44" style="edgeStyle=orthogonalEdgeStyle;rounded=0;orthogonalLoop=1;jettySize=auto;html=1;fillColor=#e51400;strokeColor=#B20000;startArrow=oval;startFill=1;strokeWidth=1;" parent="1" source="8QlNRYFuqzHitPFtihIb-23" edge="1">
          <mxGeometry relative="1" as="geometry">
            <mxPoint x="225" y="80" as="targetPoint" />
          </mxGeometry>
        </mxCell>
        <mxCell id="8QlNRYFuqzHitPFtihIb-45" style="edgeStyle=orthogonalEdgeStyle;rounded=0;orthogonalLoop=1;jettySize=auto;html=1;exitX=0.5;exitY=0;exitDx=0;exitDy=0;startArrow=oval;startFill=1;strokeWidth=1;" parent="1" source="8QlNRYFuqzHitPFtihIb-24" edge="1">
          <mxGeometry relative="1" as="geometry">
            <mxPoint x="265" y="80" as="targetPoint" />
          </mxGeometry>
        </mxCell>
        <mxCell id="8QlNRYFuqzHitPFtihIb-46" style="edgeStyle=orthogonalEdgeStyle;rounded=0;orthogonalLoop=1;jettySize=auto;html=1;exitX=0.5;exitY=0;exitDx=0;exitDy=0;fillColor=#e51400;strokeColor=#B20000;startArrow=oval;startFill=1;strokeWidth=1;" parent="1" source="8QlNRYFuqzHitPFtihIb-25" edge="1">
          <mxGeometry relative="1" as="geometry">
            <mxPoint x="305" y="80" as="targetPoint" />
          </mxGeometry>
        </mxCell>
        <mxCell id="8QlNRYFuqzHitPFtihIb-47" style="edgeStyle=orthogonalEdgeStyle;rounded=0;orthogonalLoop=1;jettySize=auto;html=1;exitX=0.5;exitY=0;exitDx=0;exitDy=0;fillColor=#e51400;strokeColor=#B20000;startArrow=oval;startFill=1;strokeWidth=1;" parent="1" source="8QlNRYFuqzHitPFtihIb-26" edge="1">
          <mxGeometry relative="1" as="geometry">
            <mxPoint x="345" y="80" as="targetPoint" />
          </mxGeometry>
        </mxCell>
        <mxCell id="8QlNRYFuqzHitPFtihIb-48" style="edgeStyle=orthogonalEdgeStyle;rounded=0;orthogonalLoop=1;jettySize=auto;html=1;exitX=0.5;exitY=0;exitDx=0;exitDy=0;fillColor=#e51400;strokeColor=#B20000;startArrow=oval;startFill=1;strokeWidth=1;" parent="1" source="8QlNRYFuqzHitPFtihIb-27" edge="1">
          <mxGeometry relative="1" as="geometry">
            <mxPoint x="385" y="80" as="targetPoint" />
          </mxGeometry>
        </mxCell>
        <mxCell id="8QlNRYFuqzHitPFtihIb-49" style="edgeStyle=orthogonalEdgeStyle;rounded=0;orthogonalLoop=1;jettySize=auto;html=1;exitX=0.5;exitY=0;exitDx=0;exitDy=0;fillColor=#e51400;strokeColor=#B20000;startArrow=oval;startFill=1;strokeWidth=1;" parent="1" source="8QlNRYFuqzHitPFtihIb-28" edge="1">
          <mxGeometry relative="1" as="geometry">
            <mxPoint x="425" y="80" as="targetPoint" />
          </mxGeometry>
        </mxCell>
        <mxCell id="8QlNRYFuqzHitPFtihIb-50" style="edgeStyle=orthogonalEdgeStyle;rounded=0;orthogonalLoop=1;jettySize=auto;html=1;exitX=0.5;exitY=0;exitDx=0;exitDy=0;fillColor=#e51400;strokeColor=#B20000;startArrow=oval;startFill=1;strokeWidth=1;" parent="1" source="8QlNRYFuqzHitPFtihIb-29" edge="1">
          <mxGeometry relative="1" as="geometry">
            <mxPoint x="465" y="80" as="targetPoint" />
          </mxGeometry>
        </mxCell>
        <mxCell id="8QlNRYFuqzHitPFtihIb-51" style="edgeStyle=orthogonalEdgeStyle;rounded=0;orthogonalLoop=1;jettySize=auto;html=1;exitX=0.5;exitY=0;exitDx=0;exitDy=0;fillColor=#e51400;strokeColor=#B20000;startArrow=oval;startFill=1;strokeWidth=1;" parent="1" source="8QlNRYFuqzHitPFtihIb-30" edge="1">
          <mxGeometry relative="1" as="geometry">
            <mxPoint x="505" y="80" as="targetPoint" />
          </mxGeometry>
        </mxCell>
        <mxCell id="8QlNRYFuqzHitPFtihIb-52" style="edgeStyle=orthogonalEdgeStyle;rounded=0;orthogonalLoop=1;jettySize=auto;html=1;exitX=0.5;exitY=0;exitDx=0;exitDy=0;fillColor=#e51400;strokeColor=#B20000;startArrow=oval;startFill=1;strokeWidth=1;" parent="1" source="8QlNRYFuqzHitPFtihIb-31" edge="1">
          <mxGeometry relative="1" as="geometry">
            <mxPoint x="545" y="80" as="targetPoint" />
          </mxGeometry>
        </mxCell>
        <mxCell id="8QlNRYFuqzHitPFtihIb-53" style="edgeStyle=orthogonalEdgeStyle;rounded=0;orthogonalLoop=1;jettySize=auto;html=1;exitX=0.5;exitY=0;exitDx=0;exitDy=0;fillColor=#e51400;strokeColor=#B20000;startArrow=oval;startFill=1;strokeWidth=1;" parent="1" source="8QlNRYFuqzHitPFtihIb-32" edge="1">
          <mxGeometry relative="1" as="geometry">
            <mxPoint x="585" y="80" as="targetPoint" />
          </mxGeometry>
        </mxCell>
        <mxCell id="8QlNRYFuqzHitPFtihIb-54" style="edgeStyle=orthogonalEdgeStyle;rounded=0;orthogonalLoop=1;jettySize=auto;html=1;exitX=0.5;exitY=0;exitDx=0;exitDy=0;fillColor=#e51400;strokeColor=#B20000;startArrow=oval;startFill=1;strokeWidth=1;" parent="1" source="8QlNRYFuqzHitPFtihIb-33" edge="1">
          <mxGeometry relative="1" as="geometry">
            <mxPoint x="625" y="80" as="targetPoint" />
          </mxGeometry>
        </mxCell>
        <mxCell id="8QlNRYFuqzHitPFtihIb-55" style="edgeStyle=orthogonalEdgeStyle;rounded=0;orthogonalLoop=1;jettySize=auto;html=1;exitX=0.5;exitY=0;exitDx=0;exitDy=0;fillColor=#e51400;strokeColor=#B20000;startArrow=oval;startFill=1;strokeWidth=1;" parent="1" source="8QlNRYFuqzHitPFtihIb-34" edge="1">
          <mxGeometry relative="1" as="geometry">
            <mxPoint x="665" y="80" as="targetPoint" />
          </mxGeometry>
        </mxCell>
        <mxCell id="8QlNRYFuqzHitPFtihIb-56" style="edgeStyle=orthogonalEdgeStyle;rounded=0;orthogonalLoop=1;jettySize=auto;html=1;exitX=0.5;exitY=0;exitDx=0;exitDy=0;fillColor=#e51400;strokeColor=#B20000;startArrow=oval;startFill=1;strokeWidth=1;" parent="1" source="8QlNRYFuqzHitPFtihIb-35" edge="1">
          <mxGeometry relative="1" as="geometry">
            <mxPoint x="705" y="80" as="targetPoint" />
          </mxGeometry>
        </mxCell>
        <mxCell id="8QlNRYFuqzHitPFtihIb-57" style="edgeStyle=orthogonalEdgeStyle;rounded=0;orthogonalLoop=1;jettySize=auto;html=1;exitX=0.5;exitY=0;exitDx=0;exitDy=0;fillColor=#e51400;strokeColor=#B20000;startArrow=oval;startFill=1;strokeWidth=1;" parent="1" source="8QlNRYFuqzHitPFtihIb-36" edge="1">
          <mxGeometry relative="1" as="geometry">
            <mxPoint x="745" y="80" as="targetPoint" />
          </mxGeometry>
        </mxCell>
        <mxCell id="8QlNRYFuqzHitPFtihIb-58" style="edgeStyle=orthogonalEdgeStyle;rounded=0;orthogonalLoop=1;jettySize=auto;html=1;exitX=0.5;exitY=0;exitDx=0;exitDy=0;fillColor=#e51400;strokeColor=#B20000;startArrow=oval;startFill=1;strokeWidth=1;" parent="1" source="8QlNRYFuqzHitPFtihIb-37" edge="1">
          <mxGeometry relative="1" as="geometry">
            <mxPoint x="785" y="80" as="targetPoint" />
          </mxGeometry>
        </mxCell>
        <mxCell id="8QlNRYFuqzHitPFtihIb-59" style="edgeStyle=orthogonalEdgeStyle;rounded=0;orthogonalLoop=1;jettySize=auto;html=1;exitX=0.5;exitY=0;exitDx=0;exitDy=0;fillColor=#e51400;strokeColor=#B20000;startArrow=oval;startFill=1;strokeWidth=1;" parent="1" source="8QlNRYFuqzHitPFtihIb-38" edge="1">
          <mxGeometry relative="1" as="geometry">
            <mxPoint x="825" y="80" as="targetPoint" />
          </mxGeometry>
        </mxCell>
        <mxCell id="8QlNRYFuqzHitPFtihIb-130" style="edgeStyle=orthogonalEdgeStyle;rounded=0;orthogonalLoop=1;jettySize=auto;html=1;exitX=0.5;exitY=0;exitDx=0;exitDy=0;fillColor=#e51400;strokeColor=#B20000;startArrow=oval;startFill=1;strokeWidth=1;" parent="1" edge="1">
          <mxGeometry relative="1" as="geometry">
            <mxPoint x="264.33000000000004" y="80" as="targetPoint" />
            <mxPoint x="264.33000000000004" y="120" as="sourcePoint" />
          </mxGeometry>
        </mxCell>
        <mxCell id="8QlNRYFuqzHitPFtihIb-140" style="edgeStyle=orthogonalEdgeStyle;rounded=0;orthogonalLoop=1;jettySize=auto;html=1;exitX=0.5;exitY=0;exitDx=0;exitDy=0;fillColor=#e51400;strokeColor=#B20000;startArrow=oval;startFill=1;strokeWidth=1;" parent="1" edge="1">
          <mxGeometry relative="1" as="geometry">
            <mxPoint x="664.33" y="80" as="targetPoint" />
            <mxPoint x="664.33" y="120" as="sourcePoint" />
          </mxGeometry>
        </mxCell>
      </root>
    </mxGraphModel>
  </diagram>
</mxfile>
